<?xml version="1.0" encoding="UTF-8" standalone="no"?><!DOCTYPE svg PUBLIC "-//W3C//DTD SVG 1.1//EN" "http://www.w3.org/Graphics/SVG/1.1/DTD/svg11.dtd"><svg width="100%" height="100%" viewBox="0 0 104 58" version="1.1" xmlns="http://www.w3.org/2000/svg" xmlns:xlink="http://www.w3.org/1999/xlink" xml:space="preserve" xmlns:serif="http://www.serif.com/" style="fill-rule:evenodd;clip-rule:evenodd;stroke-linejoin:round;stroke-miterlimit:2;"><path d="M75.025,0c-5.059,0 -10.037,1.331 -14.404,3.86c12.619,-4.818 26.783,1.518 31.602,14.164c4.819,12.62 -1.518,26.783 -14.164,31.602c-11.394,4.34 -24.226,-0.346 -30.137,-11.022c5.405,14.962 21.911,22.71 36.873,17.305c14.962,-5.405 22.71,-21.911 17.305,-36.873c-4.1,-11.422 -14.935,-19.036 -27.075,-19.036Z" style="fill:#f37124;fill-rule:nonzero;"/><path d="M0,8.813l0,6.708l7.614,0l0,23.136l7.987,0l0,-23.136l7.774,0l0,-6.708l-23.375,0Z" style="fill:#fff;fill-rule:nonzero;"/><path d="M24.6,8.866l19.461,0l0,6.522l-11.394,0l0,4.819l10.676,0l0,6.469l-10.729,0l0,5.432l12.086,0l0,6.549l-20.047,0l-0.053,-29.791Z" style="fill:#fff;fill-rule:nonzero;"/><path d="M67.011,15.947l1.49,-6.283c0,0 -2.981,-1.304 -7.587,-1.304c-4.606,0 -16.453,2.422 -16.453,15.947c0,8.253 5.218,14.803 16.08,14.803c5.857,0 7.481,-1.279 7.481,-1.279l-1.065,-6.176c0,0 -1.969,0.878 -5.084,0.878c-6.869,0 -9.026,-4.578 -9.026,-8.359c0,-8.067 6.043,-9.265 8.599,-9.265c2.556,0 5.565,1.038 5.565,1.038Z" style="fill:#fff;fill-rule:nonzero;"/></svg>